<svg width="22" height="23" viewBox="0 0 22 23" fill="none" xmlns="http://www.w3.org/2000/svg">
<path fill-rule="evenodd" clip-rule="evenodd" d="M20.7955 0.725232C21.5862 1.58468 21.5862 2.90672 20.7955 3.76617L3.89855 22.1324C3.00892 23.0994 1.4828 23.0994 0.593174 22.1324C-0.197522 21.273 -0.197523 19.9509 0.593173 19.0915L17.4901 0.725232C18.3798 -0.241751 19.9059 -0.241751 20.7955 0.725232Z" fill="#203226"/>
<path fill-rule="evenodd" clip-rule="evenodd" d="M20.7955 22.1324C19.9059 23.0994 18.3797 23.0994 17.4901 22.1324L0.593169 3.76618C-0.197526 2.90672 -0.197526 1.58468 0.593169 0.725232C1.48279 -0.241751 3.00892 -0.241752 3.89854 0.725231L20.7955 19.0915C21.5862 19.9509 21.5862 21.273 20.7955 22.1324Z" fill="#203226"/>
</svg>
