<svg width="834" height="31" viewBox="0 0 834 31" fill="none" xmlns="http://www.w3.org/2000/svg">
<path d="M256.306 15.5H368.792" stroke="#3D5A47"/>
<path d="M465.208 15.5H577.694" stroke="#3D5A47"/>
<path d="M417 26.35C423.212 26.35 428.249 21.4923 428.249 15.5C428.249 9.50774 423.212 4.65002 417 4.65002C410.788 4.65002 405.751 9.50774 405.751 15.5C405.751 21.4923 410.788 26.35 417 26.35Z" stroke="#3D5A47"/>
<path d="M417 21.7C420.55 21.7 423.428 18.9242 423.428 15.5C423.428 12.0758 420.55 9.29999 417 9.29999C413.45 9.29999 410.573 12.0758 410.573 15.5C410.573 18.9242 413.45 21.7 417 21.7Z" stroke="#3D5A47"/>
<path d="M405.751 15.5L417 4.65002L428.249 15.5L417 26.35L405.751 15.5Z" stroke="#3D5A47"/>
<path d="M410.573 10.85H423.428V20.15H410.573V10.85Z" stroke="#3D5A47"/>
</svg>
