<svg width="1094" height="639" viewBox="0 0 1094 639" fill="none" xmlns="http://www.w3.org/2000/svg">
<path d="M7.96054 35.7889C8.06475 55.0321 7.95333 80.2567 7.80039 99.4272C7.75295 105.435 7.54092 102.393 7.49863 106.54C7.41619 114.652 7.52018 122.209 7.42197 130.225C7.38838 132.881 7.05252 129.574 7.025 132.36C6.87657 147.624 6.96211 162.065 6.89072 177.528C6.53848 253.693 6.4124 328.562 6.25938 405.659C6.20921 431.08 5.9044 461.982 6.0377 488.239C6.05356 491.305 6.34836 489.477 6.37266 490.06C6.74462 499.207 6.14948 496.166 6.07041 502.138C5.75821 525.842 5.73105 552.2 5.84483 575.012C5.89409 584.717 6.47964 574.986 6.15098 584.758C6.12877 585.436 5.81571 582.974 5.78233 585.636C5.70723 591.671 5.76318 603.122 5.73838 607.8C5.68899 616.815 5.69214 618.307 5.68858 626.834C5.68705 629.17 5.67958 631.595 5.66919 634.08L4.00122 632.412C13.915 632.453 24.7835 632.542 34.7839 632.485C37.4535 632.469 33.9193 632.148 38.1767 632.093C42.4381 632.039 53.7114 632.066 57.5119 632.141C61.3135 632.217 59.6948 632.469 60.3676 632.527C65.9022 633.015 78.9426 632.339 80.6197 632.323C111.211 632.038 137.445 632.423 166.161 632.422C187.96 632.42 211.27 632.293 232.013 632.31C256.725 632.332 277.67 632.506 301.677 632.476C304.211 632.474 301.242 632.096 304.336 632.092C337.213 632.048 369.862 632.089 402.597 632.344C405.88 632.37 401.649 632.701 404.929 632.747C425.01 633.019 456.784 633.673 468.711 632.231C482.314 632.287 498.828 632.345 510.997 632.636C518.844 632.823 511.223 633.184 520.861 633.03C523.035 632.996 520.208 632.68 523.468 632.652C537.194 632.537 552.189 632.639 565.767 632.476C568.529 632.442 567.775 632.159 568.557 632.108C575.134 631.695 586.082 632.378 588.469 632.427C606.643 632.797 619.915 632.651 636.846 632.661C640.775 632.663 636.131 632.282 639.911 632.271C659.519 632.216 679.831 632.249 699.03 632.418C703.301 632.456 699.373 632.78 701.414 632.815C710.413 632.966 712.408 632.354 721.038 632.486C722.857 632.513 721.832 632.79 722.164 632.821C727.358 633.299 731.871 632.621 733.207 632.606C750.107 632.402 760.909 633.109 777.235 633.009C779.188 632.996 774.784 632.646 780.275 632.631C816.851 632.534 855.535 632.631 891.74 632.911C897.369 632.955 893.351 633.218 893.705 633.251C899.478 633.759 903.214 633.078 905.049 633.053C919.529 632.868 933.056 633.439 942.894 632.628C992.101 632.854 1041.13 632.606 1090 632.874L1088.8 634.08C1088.86 622.044 1088.96 610.018 1089.1 598.001C1089.11 597.227 1089.45 598.613 1089.46 597.071C1089.65 578.495 1089.13 582.062 1088.49 569.771C1088.33 566.674 1089.1 557.256 1089.16 556.422C1089.36 553.386 1089.86 556.535 1089.9 555.518C1090.22 547.105 1088.57 548.476 1088.57 537.126C1088.57 536.771 1088.88 538.262 1088.91 537.31C1089 534.35 1088.88 531.416 1088.98 528.52C1089.23 521.892 1090.03 519.531 1089.56 509.407C1089.5 508.126 1088.57 510.083 1088.61 499.949C1088.63 495.91 1088.61 478.028 1088.67 473.016C1088.73 468.011 1089.03 471.448 1089.05 471.091C1089.45 457.604 1089.61 462.718 1090.2 455.961C1090.79 449.204 1089.39 451.078 1089.23 448.323C1089.07 445.564 1089.4 435.676 1089.52 433.246C1089.63 430.817 1089.82 433.846 1089.89 431.687C1090.31 417.367 1089.19 425.401 1088.97 420.683C1088.44 409.559 1089.48 400.895 1089.58 390.711C1089.61 387.956 1089.38 390.204 1089.35 387.75C1089.27 378.033 1089.59 372.188 1089.3 361.132C1089.25 359.323 1088.62 350.385 1089.08 344.6C1089.15 343.781 1089.41 346.109 1089.46 341.967C1089.55 335.78 1089.61 324.632 1089.52 317.981C1089.46 313.071 1089.03 318.699 1089.16 312.519C1089.22 309.772 1089.47 314.863 1089.56 309.702C1089.65 304.569 1089.64 291.445 1089.63 286.451C1089.62 281.465 1089.3 284.194 1089.28 283.791C1089.15 281.353 1089 271.786 1089 270.94C1088.96 228.295 1089.5 188.97 1089.32 147.45C1089.31 144.191 1088.97 146.362 1088.96 145.865C1088.82 134.71 1089.73 143.505 1090.03 135.712C1089.34 136.839 1089.46 132.239 1089.39 124.381C1089.35 120.595 1089.08 122.657 1089.06 122.311C1088.65 116.696 1089.17 112.786 1089.28 111.779C1089.68 108.06 1089.21 104.013 1089.47 101.483C1089.74 98.9537 1090.13 104.774 1090.12 97.2385C1089.87 95.1254 1089.23 100.72 1089.12 94.9985C1088.72 73.4113 1089.23 33.1156 1089.28 15.7583C1089.3 10.6516 1089.31 6.56396 1089.31 3.07983L1090 3.7695C1081.67 3.75891 1076.79 3.76304 1069.67 3.69981C1051.44 3.5377 1058.12 4.0187 1046.8 4.23887C1035.44 4.45901 1040.96 3.27552 1039.33 3.0211C1037.73 2.7668 1035.98 3.02858 1033.98 2.88878C1032 2.74901 1036.3 2.57603 1031.63 2.52354C1026.95 2.47111 1014.17 2.92353 1012.51 3.18956C1009.01 3.75315 1014.77 4.34466 1002.4 4.13682C1001.69 4.12449 1004 3.81329 1001.28 3.78184C979.639 3.54227 957.163 3.52742 935.554 3.31553C932.583 3.28591 935.239 2.93972 933.51 2.91856C915.499 2.69713 921.938 3.28086 912.066 3.9293C914.283 3.06636 908.824 2.53841 895.154 2.53331C886.937 2.52994 888.352 2.90683 883.037 3.17247C881.443 3.25254 875.628 2.99376 874.575 3.171C871.1 3.7504 876.577 4.39899 862.484 4.14073C861.866 4.12845 863.834 3.8113 861.698 3.79209C847.887 3.66637 846.235 4.27241 831.306 4.3458C819.605 4.40339 798.794 4.03384 785.471 3.97373C785.751 3.00354 773.166 3.2257 768.061 3.89463C759.414 3.86725 750.075 3.90506 741.718 3.8126C738.841 3.78108 740.731 3.50018 740.368 3.46983C734.806 2.99371 731.048 3.64451 729.181 3.67002C708.953 3.91804 692.472 3.42479 673.167 3.90684C672.482 3.9242 671.372 4.59813 666.211 4.10606C665.877 4.07214 672.253 3.76551 663.172 3.7418C654.089 3.71804 636.967 3.35676 624.357 3.66905C621.306 3.74423 613.588 4.29132 607.393 3.86387C606.568 3.80583 607.471 3.61254 606.28 3.50499C602.429 3.16227 600.326 3.84345 595.8 3.26475C591.274 2.68609 581.859 2.25271 569.142 2.65196C568.737 2.66357 565.727 3.20347 561.728 3.19493C555.344 3.18084 546.281 3.06837 539.615 3.07188C536.424 3.07376 538.467 3.40901 537.913 3.41514C516.453 3.603 501.18 3.30413 478.191 3.17442C473.977 3.14998 461.866 3.60714 453.708 3.24571C444.749 2.85005 453.955 1.20418 433.364 1.5963C425.059 1.75314 414.544 3.84122 399.619 2.75938C370.673 3.02746 343.904 2.47377 314.877 2.85655C313.572 2.87351 309.444 3.45628 306.375 3.44835C301.82 3.43544 299.319 3.16307 296.066 3.14512C282.435 3.06308 269.961 3.29612 256.819 3.25987C251.83 3.2467 253.574 2.96507 247.623 2.94932C241.676 2.93385 237.71 3.30471 229.65 3.12559C223.563 2.98907 217.478 2.23104 209.398 2.14269C209.09 2.89039 203.541 2.87499 193.679 3.07237C191.783 3.11067 193.816 3.37091 192.919 3.40245C189.269 3.53658 185.892 3.32089 182.426 3.4669C181.583 3.50197 181.543 3.75731 180.854 3.8004C174.994 4.17644 165.339 3.60206 163.68 3.50206C157.325 3.12225 154.355 3.45436 149.48 3.30479C144.613 3.15525 151.89 2.9683 146.205 2.87755C134.421 2.68984 119.28 2.73108 107.312 2.71934C102.537 2.71624 105.795 3.05709 105.112 3.06456C95.2373 3.15101 85.2519 2.78844 79.7769 3.46739C72.9306 1.71188 73.8223 3.63766 59.7082 3.28624C58.5961 3.25781 57.1821 2.42765 61.4503 2.30577C65.7187 2.18401 72.1911 2.44351 78.1131 2.25353C79.5157 2.20894 87.5492 1.43102 88.6453 1.3839C97.2313 1.01562 98.448 2.25619 98.9024 2.32433C104.053 3.05965 113.871 2.22159 116.456 2.16368C128.283 1.89834 138.331 2.07281 148.223 1.88341C154.692 1.761 155.325 0.948381 160.405 0.973256C177.293 1.05547 183.188 2.18908 199.102 1.20617C202.514 0.996529 199.123 0.108361 211.35 0.806753C212.118 0.850781 221.196 1.48968 226.441 1.08556C227.1 1.03461 227.079 0.775763 227.947 0.754019C233.77 0.613366 237.652 0.819578 243.995 0.720815C250.336 0.622053 257.962 0.474819 265.203 0.562613C269.567 0.61511 275.166 1.09737 277.255 1.21544C283.153 1.55557 289.477 0.997904 293.132 1.40978C296.816 1.82373 289.613 2.45237 299.275 2.71983C299.633 2.04734 300.455 1.35709 301.031 0.680777C322.207 0.704454 343.042 0.921911 364.289 0.892202C366.923 0.887846 364.229 0.526309 367.053 0.51232C378.967 0.454884 389.373 0.712611 401.728 0.609976C411.292 0.529147 421.779 0.146357 431.779 0.0499191C437.887 0.819444 452.727 0.558208 463.506 0.628531C467.283 0.652829 467.03 0.858354 469.715 0.925405C479.847 1.17338 475.099 0.493361 477.877 0.386344C489.793 -0.0703902 490.813 1.4688 504.862 1.43077C505.606 1.42928 514.704 0.608822 515.957 0.55773C523.92 0.224566 517.275 0.8433 522.258 0.90392C531.356 1.0147 537.679 1.21064 548.353 0.970326C551.466 0.899147 558.932 0.387764 564.977 0.783315C565.772 0.83511 565.332 1.1063 565.972 1.12218C577.557 1.38692 577.862 0.534799 584.482 0.246207C591.103 -0.0423205 601.33 0.545909 603.411 0.715444C608.856 1.15402 599.239 0.902876 598.944 0.945912C595.48 1.4581 602.939 1.36992 608.638 1.4132C609.463 2.24871 617.433 2.19856 614.546 1.4547C614.217 1.37345 609.782 1.45137 608.638 1.4132C613.64 0.593446 622.399 0.48846 632.073 1.25451C636.602 1.61354 632.321 2.03216 646.077 1.87901C652.32 1.80988 649.907 1.23459 655.417 1.07775C668.004 0.719891 684.359 1.25654 697.336 1.17199C702.045 1.14129 697.458 0.826377 700.676 0.794546C709.218 0.709086 716.751 0.94537 725.33 0.824331C726.107 0.812964 724.208 0.483318 726.876 0.479117C747.099 0.440834 764.709 0.651975 785.824 0.657827C796.026 0.660505 814.266 0.478697 824.835 0.51525C843.152 0.576656 865.686 1.05601 881.334 0.939565C891.54 0.865024 889.301 0.535309 893.674 0.31066C902.113 -0.1248 917.05 0.65521 919.061 0.775991C919.123 0.779988 910.341 0.857716 915.027 1.02697C917.751 1.37963 918.962 0.77752 919.061 0.775991C920.382 0.854016 937.926 0.928863 941.409 0.865834C943.302 0.831391 942.243 0.519003 943.23 0.506949C966.689 0.227393 990.189 0.147997 1013.98 0.294059C1014.4 0.30037 1013.77 0.649793 1014.75 0.660269C1028.53 0.815631 1037.35 0.388177 1048.71 0.134392C1060.07 -0.119281 1069.08 -0.0343187 1075.8 0.565542C1079.99 0.528602 1085.07 0.573169 1090 0.647177L1092.44 0.652857L1092.43 3.07983C1092.36 8.22687 1092.25 13.2045 1092.16 16.8194C1092 23.8947 1092.68 24.8821 1092.7 25.5046C1093.13 44.9221 1092.74 56.1471 1092.68 76.292C1092.65 85.8696 1092.75 104.868 1092.82 115.237C1092.88 123.433 1092.72 128.37 1092.82 135.922C1092.84 136.943 1093.14 135.911 1093.15 136.223C1093.51 144.651 1092.77 140.601 1092.64 142.341C1092.16 148.649 1091.9 152.547 1092.13 163.34C1092.18 165.829 1093.25 173.08 1093.31 177.618C1093.39 183.518 1093.01 181.291 1093.1 187.469C1093.11 187.998 1093.34 187.888 1093.33 191.7C1093.29 209.399 1093.15 228.694 1093.17 247.086C1093.18 249.598 1093.55 246.377 1093.56 250.007C1093.6 267.039 1093.59 285.708 1093.42 302.301C1093.37 306.385 1093.11 303.825 1093.03 304.711C1092.56 310.155 1093.25 317.874 1093.26 319.147C1093.59 349.528 1092.97 372.78 1093.26 403.745C1093.28 405.431 1094.01 418.405 1093.38 424.194C1093.34 424.59 1092.7 430.317 1093.14 435.381C1093.17 435.696 1093.5 432.127 1093.46 438.355C1093.43 444.582 1093.65 454.605 1093.29 463.165C1093.17 465.876 1092.53 472.281 1093.04 480.365C1093.08 480.892 1094.23 493.373 1093.44 497.827C1093.31 498.549 1092.46 497.793 1092.89 507.442C1092.98 509.286 1093.17 505.939 1093.28 510.796C1093.47 518.237 1093.24 528.097 1093.62 537.244C1093.68 538.839 1094.25 545.63 1093.82 551.078C1093.75 551.931 1093.47 550.31 1093.44 553.187C1093.29 566.866 1093.48 581.19 1093.28 595.079C1093.21 599.999 1092.76 597.484 1092.63 602.612C1092.51 607.741 1092.4 618.074 1092.6 623.44C1092.81 628.808 1093.54 622.944 1093.6 630.986C1093.6 632.017 1093.61 633.049 1093.62 634.08L1093.61 637.703L1090 637.695C1056.09 637.902 1022.48 637.499 988.599 637.438C983.422 637.429 987.714 637.689 980.084 637.694C951.955 637.713 903.389 637.957 878.981 637.405C859.424 636.963 884.035 636.626 869.091 636.446C861.879 636.36 854.077 637.204 852.336 637.231C835.329 637.501 823.51 637.127 808.203 637.242C805.042 637.265 808.142 637.607 805.452 637.624C796.263 637.683 786.606 637.531 777.825 637.558C773.886 637.572 774.612 637.833 770.987 637.813C762.314 637.768 754.644 637.658 746.189 637.413C745.418 637.391 750.615 637.066 744.198 637.054C733.812 637.035 720.921 636.793 708.973 637.043C705.428 637.118 705.289 637.715 697.668 637.303C696.069 637.216 698.109 636.5 689.232 637.119C687.739 637.222 672.826 638.057 665.508 637.519C663.577 637.377 658.65 636.791 654.386 636.883C653.808 636.897 656.124 637.218 652.592 637.249C640.141 637.354 627.092 637.32 614.301 637.42C610.886 637.448 615.973 637.78 610.882 637.81C596.883 637.894 579.404 637.809 565.715 637.705C560.667 637.667 564.156 637.392 563.789 637.362C557.883 636.875 554.391 637.532 552.432 637.57C540.241 637.799 530.958 637.491 519.722 637.573C516.62 637.594 518.819 637.908 518.202 637.935C511.8 638.208 516.569 637.646 512.517 637.584C501.165 637.408 488.51 637.433 477.03 637.474C472.813 637.489 477.552 637.852 473.768 637.861C451.37 637.924 428.085 637.889 406.226 637.689C402.11 637.651 404.699 637.371 403.842 637.307C397.929 636.86 389.265 637.47 387.271 637.528C378.205 637.793 374.684 637.546 366.678 637.592C327.568 637.821 279.279 637.658 242.362 637.557C194.255 637.426 156.925 637.16 111.05 637.229C108.135 637.233 111.075 637.605 108.561 637.614C76.1113 637.703 44.1648 637.558 11.6498 637.665C8.98168 637.674 12.8278 638.026 8.5452 638.051C7.08803 638.06 5.56639 638.067 4.00122 638.072L3.48091e-05 638.062L0.00931287 634.08C-0.0148082 626.21 0.014107 617.239 0.108027 609.831C0.16228 605.499 0.464875 611.309 0.513299 606.949C0.626748 596.795 0.651863 585.912 0.59533 575.483C0.570504 571.045 0.209846 577.741 0.205683 571.973C0.169903 532.678 0.107788 494.086 0.574823 454.377C0.606899 451.654 1.3399 449.266 1.19933 443.478C0.995905 443.042 0.756611 443.065 0.539178 442.875C0.422051 385.672 0.676159 329.052 0.715447 271.688C0.71702 269.27 0.32864 273.449 0.329706 268.767C0.335448 241.666 0.227855 215.349 0.613885 187.627C0.651638 184.877 1.33489 186.288 1.23156 178.183C1.2127 176.753 1.12158 164.545 0.973259 161.389C0.950886 160.96 0.631969 163.187 0.622674 159.254C0.574245 136.393 0.647053 112.436 0.841912 89.6155C0.87397 85.9324 1.21359 89.8547 1.23937 87.2314C1.41966 68.6231 1.16148 48.3825 1.46984 30.6014C1.67746 18.6993 2.26453 23.1058 2.84239 16.7812C2.92392 15.8867 2.93684 8.51654 3.27306 8.13541C4.1185 7.15693 5.04425 10.7268 5.94541 9.26198C6.13951 8.95251 5.93045 -0.917982 6.39951 4.92598C6.4309 5.33425 6.58658 12.4904 6.7457 14.253C6.85571 15.4801 7.19765 13.2687 7.33847 15.7725C7.47917 18.2761 7.19254 21.0272 7.358 25.1781C7.52551 29.3272 7.9145 27.5028 7.96054 35.7889ZM1091.45 48.6779C1091.12 55.2293 1092.32 56.1961 1092.03 49.1102C1092.01 48.7671 1091.46 48.3401 1091.45 48.6779ZM342.923 1.82433C351.489 2.35201 357.35 1.5761 351.307 1.16857C345.266 0.76147 340.314 1.66437 342.923 1.82433ZM254.108 2.20958C264.118 2.62564 265.694 0.929125 254.972 1.27208C254.349 1.29146 253.522 2.18542 254.108 2.20958ZM3.00694 46.1114C3.02283 46.021 3.03832 40.7231 3.02257 40.5965C2.6426 37.7754 2.6119 48.3691 3.00694 46.1114ZM165.973 2.62901C169.098 2.8585 178.095 2.59358 174.213 2.30821C171.087 2.07864 162.081 2.34354 165.973 2.62901ZM1090.17 390.436C1090.15 390.539 1090.14 394.337 1090.24 394.261C1090.56 394.003 1090.47 388.717 1090.17 390.436ZM16.1778 2.64854C38.3092 2.7124 51.7281 4.1138 27.6269 3.95567C23.2623 3.92706 37.0335 3.50877 31.4783 3.38243C21.3137 3.15225 14.5644 4.03216 4.19153 3.56065C2.31392 3.47435 14.9154 2.64179 16.2171 2.64659C16.2041 2.64724 16.1908 2.64789 16.1778 2.64854ZM1090.01 52.4506C1089.99 52.5816 1089.98 57.8395 1089.99 57.9656C1090.37 60.813 1090.4 50.2206 1090.01 52.4506ZM1089.43 612.07C1089.4 612.36 1089.36 624.562 1089.39 624.96C1090.02 631.325 1090.08 606.656 1089.43 612.07ZM785.261 3.94786C779.524 4.32995 772.661 4.37494 768.087 3.89512C773.789 3.92059 779.528 3.92435 785.261 3.94786Z" fill="#203226" fill-opacity="0.48"/>
</svg>
