<svg width="24" height="24" viewBox="0 0 24 24" fill="none" xmlns="http://www.w3.org/2000/svg">
<path fill-rule="evenodd" clip-rule="evenodd" d="M12 24C18.6274 24 24 18.6274 24 12C24 5.37258 18.6274 0 12 0C5.37258 0 0 5.37258 0 12C0 18.6274 5.37258 24 12 24Z" fill="#E30A17"/>
<path fill-rule="evenodd" clip-rule="evenodd" d="M14.5558 9.8798C13.8857 9.14622 12.9131 8.68503 11.8309 8.68503C9.80965 8.68503 8.1709 10.29 8.1709 12.2775C8.1709 14.265 9.80965 15.8775 11.8309 15.8775C12.9169 15.8775 13.8915 15.4131 14.5608 14.675C13.751 15.9381 12.3192 16.7775 10.6873 16.7775C8.1598 16.7775 6.1123 14.7638 6.1123 12.2775C6.1123 9.79128 8.1598 7.78503 10.6873 7.78503C12.3158 7.78503 13.7451 8.62105 14.5558 9.8798Z" fill="white"/>
<path fill-rule="evenodd" clip-rule="evenodd" d="M16.1512 10.1812L16.1137 11.8425L14.5649 12.2625L16.0949 12.8062L16.0574 14.3325L17.0512 13.14L18.5587 13.665L17.6887 12.3862L18.7499 11.115L17.1187 11.565L16.1512 10.1775V10.1812Z" fill="white"/>
<path fill-rule="evenodd" clip-rule="evenodd" d="M12 23.3C18.2408 23.3 23.3 18.2408 23.3 12C23.3 5.75918 18.2408 0.7 12 0.7C5.75918 0.7 0.7 5.75918 0.7 12C0.7 18.2408 5.75918 23.3 12 23.3ZM12 24C18.6274 24 24 18.6274 24 12C24 5.37258 18.6274 0 12 0C5.37258 0 0 5.37258 0 12C0 18.6274 5.37258 24 12 24Z" fill="#D9D9D9"/>
</svg>
